<svg width="1070" height="439" viewBox="0 0 1070 439" fill="none" xmlns="http://www.w3.org/2000/svg">
<g filter="url(#filter0_d_37_2)">
<path d="M953.777 168.295C1166.5 510 346 243.251 6.99993 243.251" stroke="#EA1717" stroke-width="16"/>
</g>
<path d="M922.627 61.1109C1028.33 169.74 911.556 240.234 877.533 85.096" stroke="#EA1717" stroke-width="5"/>
<path d="M874.82 88.5555L890.254 80.3467" stroke="#EA1717" stroke-width="2"/>
<ellipse cx="892.183" cy="79.3205" rx="4.37016" ry="8.49806" transform="rotate(-28.008 892.183 79.3205)" fill="#1785EA"/>
<path d="M925.073 60.8853L910.426 68.6665" stroke="#EA1717" stroke-width="2"/>
<ellipse rx="4.14644" ry="7.65533" transform="matrix(-0.883117 0.469152 -0.469128 -0.88313 908.595 69.6388)" fill="#1785EA"/>
<path d="M56.776 263V179.48H160.312C164.056 179.48 167.416 180.392 170.392 182.216C173.368 184.04 175.72 186.44 177.448 189.416C179.272 192.392 180.184 195.704 180.184 199.352V263H161.464V200.072C161.464 199.592 161.272 199.208 160.888 198.92C160.504 198.536 160.072 198.344 159.592 198.344H129.784C129.304 198.344 128.872 198.536 128.488 198.92C128.2 199.208 128.056 199.592 128.056 200.072V263H109.048V200.072C109.048 199.592 108.856 199.208 108.472 198.92C108.184 198.536 107.8 198.344 107.32 198.344H77.368C76.888 198.344 76.456 198.536 76.072 198.92C75.784 199.208 75.64 199.592 75.64 200.072V263H56.776ZM213.044 263C209.396 263 206.084 262.088 203.108 260.264C200.132 258.44 197.732 256.04 195.908 253.064C194.084 250.088 193.172 246.776 193.172 243.128V199.352C193.172 195.704 194.084 192.392 195.908 189.416C197.732 186.44 200.132 184.04 203.108 182.216C206.084 180.392 209.396 179.48 213.044 179.48H258.116C261.764 179.48 265.076 180.392 268.052 182.216C271.124 184.04 273.524 186.44 275.252 189.416C277.076 192.392 277.988 195.704 277.988 199.352V230.744H212.036V242.408C212.036 242.888 212.18 243.32 212.468 243.704C212.852 243.992 213.284 244.136 213.764 244.136H277.988V263H213.044ZM212.036 213.752H259.124V200.072C259.124 199.592 258.932 199.208 258.548 198.92C258.26 198.536 257.876 198.344 257.396 198.344H213.764C213.284 198.344 212.852 198.536 212.468 198.92C212.18 199.208 212.036 199.592 212.036 200.072V213.752ZM308.715 263C304.971 263 301.611 262.088 298.635 260.264C295.659 258.44 293.259 256.04 291.435 253.064C289.707 250.088 288.843 246.776 288.843 243.128V199.352C288.843 195.704 289.707 192.392 291.435 189.416C293.259 186.44 295.659 184.04 298.635 182.216C301.611 180.392 304.971 179.48 308.715 179.48H354.939V152.12H373.803V263H308.715ZM309.579 244.136H353.211C353.691 244.136 354.075 243.992 354.363 243.704C354.747 243.32 354.939 242.888 354.939 242.408V200.072C354.939 199.592 354.747 199.208 354.363 198.92C354.075 198.536 353.691 198.344 353.211 198.344H309.579C309.099 198.344 308.667 198.536 308.283 198.92C307.995 199.208 307.851 199.592 307.851 200.072V242.408C307.851 242.888 307.995 243.32 308.283 243.704C308.667 243.992 309.099 244.136 309.579 244.136ZM389.066 263V179.48H407.93V263H389.066ZM389.066 171.128V152.12H407.93V171.128H389.066ZM441.138 263C437.49 263 434.178 262.088 431.202 260.264C428.226 258.44 425.826 256.04 424.002 253.064C422.178 250.088 421.266 246.776 421.266 243.128V199.352C421.266 195.704 422.178 192.392 424.002 189.416C425.826 186.44 428.226 184.04 431.202 182.216C434.178 180.392 437.49 179.48 441.138 179.48H505.938V198.344H441.858C441.378 198.344 440.946 198.536 440.562 198.92C440.274 199.208 440.13 199.592 440.13 200.072V242.408C440.13 242.888 440.274 243.32 440.562 243.704C440.946 243.992 441.378 244.136 441.858 244.136H506.082V263H441.138ZM518.307 263V152.12H537.171V179.48H583.251C586.899 179.48 590.211 180.392 593.187 182.216C596.163 184.04 598.563 186.44 600.387 189.416C602.211 192.392 603.123 195.704 603.123 199.352V263H584.259V200.072C584.259 199.592 584.067 199.208 583.683 198.92C583.395 198.536 583.011 198.344 582.531 198.344H538.899C538.419 198.344 537.987 198.536 537.603 198.92C537.315 199.208 537.171 199.592 537.171 200.072V263H518.307ZM633.794 263C630.146 263 626.834 262.088 623.858 260.264C620.882 258.44 618.482 256.04 616.658 253.064C614.834 250.088 613.922 246.776 613.922 243.128V199.352C613.922 195.704 614.834 192.392 616.658 189.416C618.482 186.44 620.882 184.04 623.858 182.216C626.834 180.392 630.146 179.48 633.794 179.48H678.866C682.514 179.48 685.826 180.392 688.802 182.216C691.874 184.04 694.274 186.44 696.002 189.416C697.826 192.392 698.738 195.704 698.738 199.352V230.744H632.786V242.408C632.786 242.888 632.93 243.32 633.218 243.704C633.602 243.992 634.034 244.136 634.514 244.136H698.738V263H633.794ZM632.786 213.752H679.874V200.072C679.874 199.592 679.682 199.208 679.298 198.92C679.01 198.536 678.626 198.344 678.146 198.344H634.514C634.034 198.344 633.602 198.536 633.218 198.92C632.93 199.208 632.786 199.592 632.786 200.072V213.752ZM730.122 263C726.474 263 723.162 262.088 720.186 260.264C717.21 258.44 714.81 256.04 712.986 253.064C711.162 250.088 710.25 246.776 710.25 243.128V199.352C710.25 195.704 711.162 192.392 712.986 189.416C714.81 186.44 717.21 184.04 720.186 182.216C723.162 180.392 726.474 179.48 730.122 179.48H794.922V198.344H730.842C730.362 198.344 729.93 198.536 729.546 198.92C729.258 199.208 729.114 199.592 729.114 200.072V242.408C729.114 242.888 729.258 243.32 729.546 243.704C729.93 243.992 730.362 244.136 730.842 244.136H795.066V263H730.122ZM807.151 263V152.12H826.015V211.736H840.847L870.655 179.48H890.815V184.664L857.551 221.24L890.671 257.816V263H870.655L840.847 230.744H826.015V263H807.151Z" fill="#1785EA"/>
<defs>
<filter id="filter0_d_37_2" x="0.151123" y="164.556" width="1001.78" height="192.053" filterUnits="userSpaceOnUse" color-interpolation-filters="sRGB">
<feFlood flood-opacity="0" result="BackgroundImageFix"/>
<feColorMatrix in="SourceAlpha" type="matrix" values="0 0 0 0 0 0 0 0 0 0 0 0 0 0 0 0 0 0 127 0" result="hardAlpha"/>
<feOffset dy="4"/>
<feGaussianBlur stdDeviation="2"/>
<feComposite in2="hardAlpha" operator="out"/>
<feColorMatrix type="matrix" values="0 0 0 0 0 0 0 0 0 0 0 0 0 0 0 0 0 0 0.25 0"/>
<feBlend mode="normal" in2="BackgroundImageFix" result="effect1_dropShadow_37_2"/>
<feBlend mode="normal" in="SourceGraphic" in2="effect1_dropShadow_37_2" result="shape"/>
</filter>
</defs>
</svg>
