<svg width="230" height="57" viewBox="0 0 230 57" fill="none" xmlns="http://www.w3.org/2000/svg">
<path d="M51.506 56.2405C48.05 56.2583 43.4262 54.8185 37.6345 51.9211C35.3964 50.8289 33.1331 49.6888 30.8444 48.5009C28.605 47.3607 26.3423 46.2446 24.0563 45.1527C21.6348 47.9005 19.5272 49.831 17.7333 50.944C15.4232 52.4915 12.7081 53.2734 9.58819 53.2894C8.00421 53.2976 6.45384 52.7777 4.93709 51.7298C3.17772 50.5871 2.27711 49.2481 2.23525 47.7127C2.17901 45.6494 3.23984 44.0603 5.41772 42.9454C6.26863 42.4611 7.19546 42.1204 8.19822 41.9232C9.20097 41.7261 10.2783 41.6246 11.4303 41.6186C12.5343 41.6129 13.6649 41.7031 14.8221 41.8891C16.026 42.0268 17.3039 42.2362 18.6557 42.5172C19.0293 42.1313 20.1479 40.9018 22.0116 38.8287C23.9221 36.7073 26.5782 33.7663 29.9802 30.0056C25.8252 30.7949 23.7646 31.8133 23.7987 33.0608C23.8065 33.3487 23.8844 33.5642 24.0323 33.7074C24.1842 33.9946 24.2594 34.1142 24.2581 34.0662C24.2594 34.1142 24.2367 34.1623 24.19 34.2105C23.758 34.2127 23.2449 33.8795 22.6506 33.2107C22.2522 32.6849 22.0458 32.1581 22.0314 31.6302C21.97 29.3751 25.3193 28.0861 32.0793 27.7633C40.0038 19.0844 47.0985 12.5453 53.3634 8.14602C51.6275 7.86704 49.8924 7.61205 48.1578 7.38105C46.422 7.10207 44.6868 6.84708 42.9523 6.61608C40.8325 6.33908 38.9066 6.13307 37.1747 5.99803C35.4415 5.81502 33.9029 5.72698 32.559 5.73391C30.159 5.74629 27.8888 6.11792 25.7485 6.84879C22.848 7.87152 21.4246 9.36651 21.4782 11.3338C21.4939 11.9096 21.7042 12.5803 22.1091 13.3461C22.61 14.1113 22.8605 14.4939 22.8605 14.4939C22.8683 14.7818 22.7049 14.9506 22.3702 15.0003L22.1523 14.9295C21.057 13.4955 20.4918 12.1307 20.4565 10.8352C20.4081 9.05983 21.2983 7.37563 23.1271 5.78256C23.9248 5.1066 24.7744 4.57434 25.6759 4.18578C26.6241 3.74899 27.5996 3.43203 28.6023 3.2349C29.2717 3.13547 29.9658 3.05991 30.6844 3.00821C31.4018 2.90853 32.1445 2.85671 32.9125 2.85275C36.1764 2.83591 40.0048 3.27206 44.3976 4.16119C46.28 4.53539 48.1391 4.93371 49.9749 5.35614C51.8586 5.77833 53.7664 6.20039 55.6981 6.62232C56.3583 6.18702 57.1613 5.70299 58.1069 5.17023C59.0525 4.63747 60.1407 4.05599 61.3717 3.42579C64.5912 1.77756 66.5369 0.951711 67.2089 0.948245C67.3049 0.94775 67.3542 0.995484 67.3569 1.09145C67.3673 1.4753 67.1352 1.76444 66.6604 1.95884C66.279 2.05679 65.7796 2.22732 65.1622 2.47045C64.5914 2.66535 63.9266 2.93272 63.1678 3.27256C62.1236 3.70984 61.034 4.24334 59.899 4.87305C58.7627 5.45478 57.6517 6.08437 56.566 6.76181C57.6766 6.99603 58.7138 7.18263 59.6777 7.32163C60.6896 7.46038 61.6049 7.57563 62.4235 7.66738C64.8387 6.4552 67.1264 5.84354 69.2863 5.8324C70.9663 5.82373 71.8154 6.15527 71.8338 6.82702C71.8717 8.21851 68.6014 8.88323 62.0229 8.82118C56.5063 12.4968 49.3811 18.7961 40.6472 27.7191C43.0005 27.755 45.0677 27.8643 46.8489 28.047C48.6768 28.1816 50.2667 28.3893 51.6185 28.6703C51.9558 28.7165 52.1265 28.8116 52.1304 28.9556C52.133 29.0515 51.9903 29.1003 51.7023 29.1017C51.3663 29.1035 50.9343 29.1057 50.4063 29.1084C49.877 29.0632 49.2757 29.0183 48.6024 28.9738C47.9291 28.9293 47.3285 28.9084 46.8005 28.9111C46.3192 28.8656 45.8865 28.8438 45.5025 28.8458C44.4946 28.851 43.4632 28.8803 42.4085 28.9337C41.4006 28.9389 40.3692 28.9683 39.3145 29.0217C37.7283 30.7095 35.7219 32.8313 33.2953 35.3873C30.8686 37.9432 28.0218 40.9332 24.7547 44.3573C27.2755 45.256 29.7976 46.2028 32.321 47.1976C34.8445 48.1923 37.3673 49.1631 39.8894 50.1098C43.0407 51.2453 45.8956 52.0704 48.4539 52.5851C51.0123 53.0998 53.2995 53.3519 55.3154 53.3415C59.1554 53.3217 61.0459 52.2322 60.9871 50.073C60.9518 48.7775 60.21 47.1017 58.7618 45.0456C59.3936 45.3303 60.0353 45.9749 60.6867 46.9793C61.2902 47.9839 61.6024 48.8701 61.6233 49.6378C61.6769 51.6051 60.4494 53.2431 57.9408 54.5517C55.7629 55.6667 53.6179 56.2296 51.506 56.2405ZM65.3073 7.79647L66.0273 7.79276C68.1873 7.78162 69.2601 7.51215 69.2457 6.98434C69.2405 6.79241 68.9019 6.69818 68.2299 6.70165C67.0779 6.70759 65.6951 7.05065 64.0814 7.73081C64.3227 7.77756 64.5394 7.80043 64.7314 7.79944C64.9714 7.79821 65.1634 7.79722 65.3073 7.79647ZM33.8053 27.6824C35.0987 27.5798 36.3947 27.5731 37.6933 27.6624C41.5621 23.4194 45.398 19.7284 49.201 16.5895C53.0519 13.4504 56.7972 10.8397 60.4369 8.75738C59.5236 8.7141 58.5617 8.64708 57.5511 8.55631C56.5405 8.46555 55.5059 8.37491 54.4473 8.28439C51.7623 10.1698 48.6877 12.7291 45.2234 15.9622C41.807 19.1951 38.001 23.1018 33.8053 27.6824ZM23.8089 44.0022C25.1551 42.3157 26.8508 40.2434 28.8961 37.7854C30.9893 35.3272 33.4081 32.4834 36.1525 29.2539C35.3858 29.3059 34.6438 29.3817 33.9264 29.4814C33.2557 29.5328 32.5857 29.6083 31.9163 29.7077C30.6129 31.2021 28.9346 33.0343 26.8815 35.2044C24.8764 37.3742 22.5211 39.9058 19.8156 42.7991C20.4448 42.9878 21.074 43.1765 21.7032 43.3652C22.3805 43.5537 23.0823 43.766 23.8089 44.0022ZM10.123 51.775C12.139 51.7646 14.5193 51.0325 17.264 49.5787C20.0541 48.0287 22.0036 46.459 23.1124 44.8696C22.7699 44.6314 22.2594 44.3941 21.5808 44.1577C20.949 43.873 20.1738 43.6131 19.2553 43.3779C15.0037 47.6708 11.822 49.8227 9.71001 49.8336C8.99002 49.8373 8.4808 49.648 8.18234 49.2656L8.54233 49.2638C10.8943 49.2516 14.0787 47.1957 18.0954 43.0959C16.693 42.7192 15.4372 42.4378 14.3279 42.2515C13.2187 42.0653 12.2801 41.9742 11.5121 41.9781C9.59216 41.988 7.85 42.3569 6.28564 43.0848C4.3412 43.9587 3.39188 45.2353 3.43766 46.9147C3.47951 48.4501 4.25685 49.6698 5.76968 50.5738C7.0399 51.383 8.491 51.7835 10.123 51.775ZM73.5066 48.8567C72.2106 48.8634 71.1843 48.1968 70.4277 46.857C69.8216 45.7564 69.4989 44.4864 69.4597 43.0469C69.4401 42.3272 69.4665 41.5352 69.539 40.6711C69.6581 39.7587 69.8233 38.774 70.0345 37.7172C67.1937 44.4503 64.1653 47.8251 60.9493 47.8417C58.9813 47.8519 57.9627 46.5854 57.8934 44.0424C57.7822 39.9639 59.6351 35.7313 63.452 31.3446C67.3143 26.8617 71.2134 24.6101 75.1494 24.5898C77.0214 24.5802 77.9796 25.391 78.024 27.0224C78.079 29.0377 76.7899 31.0599 74.1569 33.089C72.8591 36.5509 72.2599 40.1051 72.3593 43.7518C72.4338 46.4868 73.0711 47.8512 74.2711 47.845C75.8551 47.8368 78.6526 44.7991 82.6638 38.7318C82.9413 38.3464 83.1521 38.1534 83.2961 38.1527C83.4401 38.1519 83.5147 38.2475 83.5199 38.4394C83.5265 38.6794 83.437 38.9198 83.2515 39.1607C79.1069 45.6126 75.8585 48.8446 73.5066 48.8567ZM61.1765 45.6091C64.2004 45.5935 67.0369 42.2196 69.6857 35.4875C69.3043 35.5854 68.9469 35.6833 68.6136 35.781C68.3269 35.8304 68.0635 35.8558 67.8235 35.857C67.6315 35.858 67.5336 35.7865 67.5297 35.6426C67.5231 35.4027 67.8526 35.161 68.518 34.9177C68.7541 34.7725 69.0615 34.6029 69.4403 34.409C69.8177 34.1671 70.2425 33.901 70.7147 33.6106C70.7884 32.7944 71.2637 31.7362 72.1403 30.436C73.0157 29.0878 73.8614 28.4116 74.6774 28.4074C74.9654 28.4059 75.1152 28.6211 75.127 29.0529C75.1362 29.3888 75.0306 29.9172 74.8102 30.6382C75.5494 29.5786 75.9053 28.545 75.8778 27.5374C75.8477 26.4338 75.3287 25.8846 74.3207 25.8898C71.9207 25.9022 68.8409 28.2695 65.0811 32.9918C61.3226 37.7621 59.4781 41.4188 59.5474 43.9618C59.5775 45.0654 60.1205 45.6145 61.1765 45.6091ZM101.948 51.1574C99.6922 51.1691 97.041 49.887 93.9944 47.3114C91.6848 45.3557 89.6073 43.111 87.762 40.5771C87.303 41.3473 86.8672 42.0933 86.4549 42.8153C86.0425 43.5372 85.6068 44.2833 85.1477 45.0535C84.0454 46.8828 82.9781 48.232 81.9456 49.1011C81.5917 50.2067 80.8628 50.7623 79.7588 50.768C79.2308 50.7707 78.9616 50.5802 78.9511 50.1963C78.9145 48.8528 80.1907 44.5992 82.7798 37.4355L81.4157 37.5865C81.1277 37.588 80.9824 37.5407 80.9798 37.4448C80.9615 36.773 81.6717 36.4094 83.1103 36.354C83.8286 34.5267 84.591 32.5553 85.3974 30.4396C86.2026 28.2759 87.0771 26.016 88.021 23.6596C85.8457 24.8706 84.2781 25.4785 83.3181 25.4835C83.1261 25.4845 83.0281 25.413 83.0242 25.269C83.0111 24.7892 83.3367 24.4036 84.0008 24.1123C84.0942 24.0158 84.2362 23.9431 84.4269 23.8941C84.6643 23.7969 84.925 23.6756 85.2091 23.5302C86.5828 22.8512 87.8105 22.1011 88.8922 21.2797C89.4783 19.885 90.2225 18.1295 91.125 16.0134C92.0261 13.8492 93.0854 11.3243 94.3029 8.43873C94.5739 7.81348 94.8896 7.06802 95.2501 6.20236C95.6105 5.3367 96.0384 4.30273 96.5337 3.10045C97.0316 1.99414 98.1446 1.43653 99.8725 1.42761C100.785 1.42291 101.248 1.68446 101.262 2.21226C101.267 2.40419 101.069 3.05306 100.667 4.15888C100.045 5.98567 99.1877 8.00563 98.0959 10.2187C97.0521 12.4316 95.7729 14.8137 94.2582 17.3649C94.0274 17.702 93.7271 18.1355 93.3575 18.6652C92.9879 19.195 92.5969 19.8209 92.1846 20.5429C91.9096 21.0242 91.5906 21.6497 91.2276 22.4194C90.9125 23.1888 90.5041 24.0547 90.0022 25.0171C88.8663 27.3744 87.2384 31.054 85.1185 36.0557C86.0536 35.1391 86.6652 34.6801 86.9532 34.6786C87.3372 34.6766 87.6804 34.9388 87.9827 35.4651C88.0774 35.4166 88.2915 35.3435 88.6248 35.2458C89.0049 35.0999 89.4797 34.9055 90.0491 34.6626C90.2307 34.2778 90.4582 33.8207 90.7318 33.2914C91.0521 32.7139 91.4178 32.0402 91.8289 31.2702C92.3774 30.2596 92.9746 29.2728 93.6204 28.3097C94.3143 27.3463 95.0567 26.4067 95.8479 25.4908C98.0345 22.9361 99.8478 21.6551 101.288 21.6476C102.824 21.6397 103.636 23.2432 103.723 26.458C103.832 30.4405 99.5456 33.4619 90.8647 35.5222C90.5924 36.0995 90.1099 36.8938 89.4174 37.9051C90.9773 40.5365 92.8434 42.9503 95.0155 45.1466C97.8793 48.0591 100.415 49.5097 102.623 49.4983C103.583 49.4934 104.39 49.1533 105.044 48.4781C105.793 47.8024 106.192 47.4644 106.24 47.4641C106.432 47.4631 106.531 47.5586 106.536 47.7505C106.539 47.8465 106.496 48.0387 106.408 48.3271C105.307 50.2043 103.82 51.1478 101.948 51.1574ZM91.4793 34.2953C97.3724 32.1054 100.274 29.3551 100.184 26.0443C100.147 24.7008 99.8166 24.0307 99.1926 24.0339C98.1366 24.0394 96.1361 26.3771 93.191 31.0473C93.0081 31.3841 92.7566 31.8413 92.4363 32.4188C92.1627 32.9481 91.8437 33.5736 91.4793 34.2953ZM82.1944 47.6602C83.8674 45.636 85.5481 43.0119 87.2365 39.788C87.0353 39.4531 86.8082 39.0463 86.5551 38.5678C86.302 38.0892 85.9983 37.5149 85.644 36.8448L84.854 36.9209C84.4067 38.1229 83.9673 39.6129 83.5357 41.3907C83.1041 43.1685 82.657 45.2583 82.1944 47.6602ZM118.154 48.6264C116.858 48.6331 115.832 47.9665 115.076 46.6267C114.469 45.5261 114.147 44.2561 114.108 42.8166C114.088 42.0969 114.114 41.3049 114.187 40.4408C114.306 39.5284 114.471 38.5437 114.682 37.4869C111.842 44.22 108.813 47.5948 105.597 47.6114C103.629 47.6216 102.611 46.3551 102.541 43.8121C102.43 39.7336 104.283 35.501 108.1 31.1143C111.962 26.6314 115.861 24.3798 119.797 24.3595C121.669 24.3499 122.627 25.1607 122.672 26.7921C122.727 28.8074 121.438 30.8296 118.805 32.8587C117.507 36.3206 116.908 39.8749 117.007 43.5215C117.082 46.2565 117.719 47.6209 118.919 47.6147C120.503 47.6065 123.3 44.5688 127.312 38.5015C127.589 38.1161 127.8 37.9231 127.944 37.9224C128.088 37.9216 128.163 38.0172 128.168 38.2091C128.174 38.4491 128.085 38.6895 127.899 38.9304C123.755 45.3823 120.506 48.6143 118.154 48.6264ZM105.824 45.3788C108.848 45.3632 111.685 41.9893 114.334 35.2572C113.952 35.3551 113.595 35.453 113.261 35.5507C112.975 35.6001 112.711 35.6255 112.471 35.6267C112.279 35.6277 112.181 35.5562 112.178 35.4123C112.171 35.1724 112.5 34.9307 113.166 34.6874C113.402 34.5422 113.709 34.3726 114.088 34.1787C114.466 33.9368 114.89 33.6707 115.363 33.3803C115.436 32.5641 115.912 31.5059 116.788 30.2057C117.664 28.8575 118.509 28.1813 119.325 28.1771C119.613 28.1756 119.763 28.3908 119.775 28.8226C119.784 29.1585 119.678 29.6869 119.458 30.4079C120.197 29.3483 120.553 28.3147 120.526 27.3071C120.496 26.2035 119.977 25.6543 118.969 25.6595C116.569 25.6719 113.489 28.0392 109.729 32.7615C105.97 37.5318 104.126 41.1885 104.195 43.7315C104.225 44.8351 104.768 45.3842 105.824 45.3788ZM130.616 48.4901C130.28 48.4919 129.844 48.3502 129.308 48.065C128.769 47.6839 128.497 47.3733 128.49 47.1334C128.627 46.8448 128.738 46.5323 128.825 46.1959C128.96 45.8593 129.119 45.5225 129.301 45.1857C130.116 43.3579 130.858 41.5305 131.528 39.7035C132.199 37.8764 132.749 36.05 133.179 34.2242C133.612 32.4944 133.796 30.4539 133.732 28.1028C133.649 28.5831 133.357 29.3044 132.855 30.2668C132.4 31.1809 131.783 32.3358 131.005 33.7315C130.274 35.079 129.609 36.2102 129.01 37.125C128.457 37.9917 127.996 38.6899 127.627 39.2197C127.628 39.2677 127.581 39.2919 127.485 39.2924C127.245 39.2937 127.122 39.1983 127.117 39.0064C127.114 38.9104 127.136 38.8383 127.183 38.7901C127.504 38.2606 127.825 37.707 128.146 37.1295C128.514 36.5517 128.905 35.9259 129.319 35.2519C130.557 33.134 131.537 31.2334 132.26 29.55C132.982 27.8667 133.493 26.3764 133.794 25.0791C134.048 23.8301 134.511 23.2039 135.183 23.2004C135.951 23.1965 136.361 24.1541 136.413 26.0734C136.508 29.5281 135.519 33.7802 133.449 38.8298C135.952 35.5536 137.693 33.3851 138.672 32.3243C141.328 29.3833 143.424 27.9088 144.96 27.9009C146.496 27.893 147.292 28.8966 147.347 30.9119C147.385 32.3034 147.034 33.5289 146.295 34.5885C145.419 35.9367 144.598 36.6127 143.83 36.6167C143.686 36.6174 143.611 36.5219 143.606 36.3299C143.606 36.3299 143.853 35.7288 144.349 34.5265C144.844 33.3242 145.08 32.2913 145.056 31.4276C145.021 30.1321 144.595 29.4864 143.779 29.4906C142.675 29.4963 140.843 30.9694 138.283 33.9099C136.237 36.3199 134.756 38.3671 133.842 40.0514C133.798 40.1956 133.598 40.7725 133.241 41.7821C132.885 42.7917 132.349 44.2822 131.635 46.2534C131.547 46.5418 131.436 46.8783 131.302 47.2629C131.215 47.5993 131.105 47.9597 130.972 48.3443C130.878 48.4408 130.76 48.4894 130.616 48.4901ZM156.158 23.1642C155.198 23.1692 154.704 22.6678 154.677 21.6602C154.662 21.1324 154.935 20.5551 155.494 19.9284C155.819 19.5428 156.099 19.2294 156.332 18.9883C156.614 18.7469 156.873 18.5776 157.11 18.4804C158.816 17.6558 159.837 17.2426 160.173 17.2409C160.317 17.2401 160.39 17.2877 160.393 17.3837C160.397 17.5276 159.864 18.2262 158.794 19.4795C158.747 19.5277 158.657 19.7441 158.524 20.1287C158.389 20.4653 158.139 20.9945 157.775 21.7162C157.369 22.6781 156.83 23.1607 156.158 23.1642ZM152.468 46.2899C150.02 46.3025 148.762 45.0853 148.696 42.6382C148.646 40.8149 149.063 38.5093 149.947 35.7213C149.765 36.0582 149.558 36.3952 149.327 36.7323C149.144 37.0692 148.937 37.4062 148.706 37.7433C148.111 38.8021 147.694 39.3321 147.454 39.3334C147.358 39.3339 147.308 39.2622 147.304 39.1182C147.293 38.7343 147.427 38.3737 147.706 38.0364C148.815 36.447 150.025 34.1613 151.336 31.1792C151.469 30.7946 151.648 30.3138 151.873 29.7368C152.145 29.1595 152.463 28.51 152.828 27.7883C153.056 27.3552 153.65 27.1362 154.61 27.1313C155.426 27.1271 155.84 27.3649 155.853 27.8447C155.867 28.3245 155.67 29.0454 155.264 30.0072C154.763 30.9696 154.346 31.5236 154.013 31.6693C151.654 36.6723 150.506 40.3494 150.57 42.7005C150.613 44.2839 151.162 45.0729 152.218 45.0675C153.946 45.0586 155.808 43.8012 157.804 41.2955C159.896 38.7893 160.918 37.5363 160.87 37.5366C160.966 37.5361 161.016 37.6078 161.02 37.7518C161.021 37.7997 160.978 37.9679 160.89 38.2563C160.479 39.0263 159.948 39.8208 159.299 40.64C158.696 41.4109 157.998 42.2303 157.205 43.0982C155.151 45.2203 153.572 46.2842 152.468 46.2899ZM167.284 48.7329C163.876 48.7505 162.112 46.5521 161.991 42.1377C161.973 41.466 161.978 40.7461 162.005 39.9782C162.078 39.162 162.199 38.2975 162.366 37.3849C162.17 37.2419 161.973 37.051 161.774 36.8121C161.574 36.5252 161.373 36.1903 161.171 35.8074C161.364 35.8544 161.559 35.9494 161.755 36.0923C161.997 36.1871 162.288 36.2816 162.626 36.3758C163.089 33.974 164.464 31.5914 166.752 29.2281C169.226 26.624 171.59 25.3161 173.846 25.3045C174.374 25.3017 174.64 25.3723 174.644 25.5163C174.647 25.6123 174.317 25.8539 173.656 26.2412C171.906 27.21 170.29 28.706 168.809 30.7292C167.232 32.7529 166.111 34.7742 165.446 36.7931C165.496 36.8409 165.52 36.8647 165.52 36.8647C165.52 36.8647 165.545 36.8886 165.594 36.9363C167.898 36.9245 170.268 35.8085 172.704 33.5884C175.14 31.3684 176.326 29.1068 176.263 26.8036C176.245 26.1319 176.035 25.4851 175.634 24.8633C175.283 24.2893 174.747 24.0041 174.027 24.0078C173.115 24.0125 172.045 24.378 170.816 25.1041C169.637 25.878 168.976 26.2654 168.832 26.2661C168.736 26.2666 168.687 26.2429 168.686 26.1949C168.67 25.6191 169.493 24.991 171.155 24.3106C172.579 23.7274 173.699 23.4336 174.515 23.4294C175.667 23.4235 176.588 23.7307 177.277 24.351C178.062 24.9708 178.469 25.8325 178.499 26.9361C178.569 29.4791 176.98 31.9587 173.733 34.3749C170.815 36.5015 167.967 37.6919 165.19 37.9462C164.837 39.0997 164.675 40.2043 164.704 41.2599C164.812 45.2425 166.307 47.2263 169.187 47.2114C171.395 47.2 173.672 46.2285 176.02 44.2969C177.993 42.703 179.621 40.7751 180.903 38.513C181.317 37.839 181.668 37.5013 181.956 37.4998C182.004 37.4996 182.029 37.5474 182.032 37.6434C182.037 37.8353 181.857 38.2681 181.491 38.9419C180.067 41.3007 178.038 43.4706 175.403 45.4518C172.534 47.6261 169.828 48.7198 167.284 48.7329ZM182.225 50.2395C181.649 50.2424 181.404 50.0517 181.49 49.6674C181.335 49.2843 180.983 48.6862 180.433 47.8733C179.833 47.0126 179.531 46.4862 179.525 46.2943C179.515 45.9105 179.677 45.6937 180.012 45.6439C180.484 45.3536 180.978 44.9911 181.494 44.5566C182.01 44.122 182.573 43.6392 183.183 43.1082C184.599 38.6859 186.472 33.4454 188.803 27.3868C191.133 21.2802 193.945 14.3793 197.24 6.68405C197.467 6.20299 197.691 5.62597 197.913 4.95298C198.181 4.23176 198.544 3.43808 199 2.57192C199.546 1.46536 200.803 0.907005 202.771 0.896854C203.491 0.893141 203.856 1.05922 203.865 1.39509C203.867 1.49106 203.822 1.58727 203.729 1.68373C203.272 2.54989 202.726 3.63246 202.089 4.93144C201.452 6.23043 200.678 7.77007 199.766 9.55036C196.673 15.8049 194.018 21.4333 191.802 26.4356C189.634 31.4376 187.929 35.8374 186.689 39.6349C189.303 36.934 191.446 34.5235 193.116 32.4034C194.834 30.235 196.126 28.3328 196.993 26.6967C197.039 26.6005 197.107 26.4562 197.198 26.2638C197.288 26.0713 197.379 25.8789 197.47 25.6865C197.745 25.2052 198.218 24.9628 198.89 24.9593C199.466 24.9564 199.76 25.1468 199.77 25.5307C199.777 25.7706 199.762 26.1066 199.725 26.5386C199.689 26.9707 199.632 27.4989 199.553 28.1232C199.474 28.7474 199.393 29.2997 199.31 29.78C199.275 30.2601 199.262 30.6681 199.271 31.004C199.351 33.9309 199.863 36.8796 200.808 39.85C202.169 43.97 203.929 46.0245 206.089 46.0133C206.473 46.0113 206.95 45.8889 207.519 45.646C208.089 45.4031 208.421 45.2815 208.517 45.281C208.901 45.279 209.099 45.4699 209.109 45.8538C209.122 46.3336 208.654 46.7679 207.704 47.1567C206.707 47.5458 205.944 47.7417 205.416 47.7444C203.016 47.7568 200.779 45.8248 198.705 41.9484C196.93 38.4543 196.001 35.1959 195.919 32.173C195.912 31.9331 195.906 31.7172 195.901 31.5252C195.896 31.3333 195.914 31.1412 195.957 30.9491C195.127 32.2011 193.873 33.7432 192.195 35.5754C190.517 37.4077 188.438 39.5299 185.96 41.9421C185.742 42.7591 185.547 43.5519 185.376 44.3206C185.205 45.0893 185.033 45.81 184.859 46.4827C184.816 46.6749 184.776 46.9391 184.737 47.2752C184.697 47.5633 184.634 47.8996 184.548 48.2839C184.248 49.5812 183.473 50.233 182.225 50.2395ZM181.804 48.0102C181.89 47.6258 181.974 47.1935 182.057 46.7132C182.188 46.2326 182.343 45.7519 182.522 45.2711C182.24 45.5125 181.982 45.7298 181.748 45.9229C181.513 46.1161 181.278 46.3093 181.043 46.5024C181.292 46.8371 181.546 47.3396 181.804 48.0102Z" fill="#59626B"/>
<path d="M224.859 48.076C224.475 48.078 224.156 47.8397 223.903 47.3611C223.553 46.835 223.372 46.3801 223.362 45.9962C223.341 45.2285 223.733 44.6506 224.539 44.2625C224.771 43.9734 225.407 43.5382 226.447 42.957C226.968 42.6664 227.394 42.4722 227.728 42.3745C228.06 42.2288 228.322 42.1555 228.514 42.1545C228.562 42.1543 228.61 42.178 228.66 42.2257L228.732 42.2254C228.732 42.2254 228.57 42.4422 228.245 42.8757C227.921 43.3093 227.759 43.5261 227.759 43.5261C227.389 44.0559 227.074 44.8253 226.814 45.8344C226.518 47.3236 225.867 48.0708 224.859 48.076Z" fill="#5D90C4"/>
</svg>
